PathFileType	4	(X/Y/Z)	/Users/itak/Documents/Research/Walk-IL/dataset/trc/00140_00007.trc
DataRate	CameraRate	NumFrames	NumMarkers	Units	OrigDataRate	OrigDataStartFrame	OrigNumFrames
100.000000	100.000000	4	53	mm	100.000000	0	536
Frame#	Time	RPSI			LPSI			L3			STRN			T10			C7			CLAV			RBAK			LBAK			LSHO			LUPA			LAEL			LAOL			LWTS			LWPS			LFRA			LIFD			LHPS			LHTS			RSHO			RUPA			RAEL			RAOL			RWTS			RWPS			RFRA			RIFD			RHTS			RHPS			RBHD			LFHD			RFHD			LBHD			LHIP			RHIP			RASI			LASI			LKNE			LTHI			LANK			LTIP			LTOE			LMT1			LMT5			LHEE			RKNE			RTHI			RANK			RTIP			RTOE			RMT1			RMT5			RHEE			
		X1	Y1	Z1	X2	Y2	Z2	X3	Y3	Z3	X4	Y4	Z4	X5	Y5	Z5	X6	Y6	Z6	X7	Y7	Z7	X8	Y8	Z8	X9	Y9	Z9	X10	Y10	Z10	X11	Y11	Z11	X12	Y12	Z12	X13	Y13	Z13	X14	Y14	Z14	X15	Y15	Z15	X16	Y16	Z16	X17	Y17	Z17	X18	Y18	Z18	X19	Y19	Z19	X20	Y20	Z20	X21	Y21	Z21	X22	Y22	Z22	X23	Y23	Z23	X24	Y24	Z24	X25	Y25	Z25	X26	Y26	Z26	X27	Y27	Z27	X28	Y28	Z28	X29	Y29	Z29	X30	Y30	Z30	X31	Y31	Z31	X32	Y32	Z32	X33	Y33	Z33	X34	Y34	Z34	X35	Y35	Z35	X36	Y36	Z36	X37	Y37	Z37	X38	Y38	Z38	X39	Y39	Z39	X40	Y40	Z40	X41	Y41	Z41	X42	Y42	Z42	X43	Y43	Z43	X44	Y44	Z44	X45	Y45	Z45	X46	Y46	Z46	X47	Y47	Z47	X48	Y48	Z48	X49	Y49	Z49	X50	Y50	Z50	X51	Y51	Z51	X52	Y52	Z52	X53	Y53	Z53	

1	0	-842.2627563476562	1131.139526367188	1218.350830078125	-846.3865356445312	1132.30712890625	1083.837890625	-851.2150268554688	1161.945068359375	1148.993041992188	-638.1820678710938	1365.020751953125	1141.662475585938	-894.9382934570312	1311.146118164062	1149.005859375	-867.8286743164062	1603.80224609375	1134.647583007812	-678.8417358398438	1498.672119140625	1138.159912109375	-915.4737548828125	1419.064575195312	1224.32861328125	-875.7954711914062	1583.73486328125	1032.572509765625	-789.883544921875	1570.2353515625	962.1566772460938	-808.390869140625	1438.085815429688	891.73291015625	-785.7053833007812	1218.0302734375	873.7402954101562	-853.096435546875	1205.569091796875	930.2321166992188	-676.6556396484375	964.8236083984375	926.0048217773438	-755.472412109375	935.5208129882812	896.0208740234375	-764.2783203125	1102.185180664062	872.4814453125	-653.4837036132812	770.8261108398438	944.1065673828125	-724.1201782226562	861.6600341796875	899.2979736328125	-658.3759765625	876.7738037109375	918.0052490234375	-804.7614135742188	1586.145874023438	1314.002563476562	-818.2384033203125	1513.965942382812	1379.723266601562	-820.3084106445312	1219.919799804688	1407.3447265625	-838.7098388671875	1218.179565429688	1312.70703125	-672.1038208007812	979.4371337890625	1373.396240234375	-740.8513793945312	961.4044799804688	1416.630981445312	-792.1526489257812	1146.416870117188	1420.273559570312	-638.693603515625	786.302490234375	1359.94921875	-638.4906616210938	873.931884765625	1376.84130859375	-699.7920532226562	863.1500854492188	1414.665405273438	-828.1718139648438	1773.5595703125	1217.12890625	-693.0570068359375	1844.762817382812	1058.58056640625	-672.9459228515625	1854.916015625	1186.960327148438	-856.4107666015625	1767.491821289062	1085.360107421875	-758.1954345703125	1040.683227539062	973.7235107421875	-710.4027709960938	1034.192016601562	1330.497680664062	-631.066162109375	1107.379638671875	1275.344970703125	-647.2299194335938	1106.246337890625	1009.551879882812	-744.4664306640625	539.6480102539062	995.6522827148438	-762.8932495117188	686.5827026367188	971.6405639648438	-865.4672241210938	39.77509689331055	1003.118041992188	-851.9607543945312	296.3669128417969	971.8049926757812	-631.6113891601562	41.12695693969727	1053.054077148438	-712.4366455078125	42.70877075195312	1089.5908203125	-739.4884033203125	39.66233825683594	974.9796142578125	-934.3325805664062	42.04952621459961	1066.122680664062	-740.2144775390625	542.2783813476562	1293.8525390625	-701.8278198242188	820.8285522460938	1321.898315429688	-848.4392700195312	29.68205833435059	1265.513793945312	-770.1573486328125	410.5786437988281	1303.064086914062	-610.9449462890625	46.38176727294922	1218.59130859375	-670.9912719726562	38.32269287109375	1176.72412109375	-711.1387329101562	42.75163269042969	1292.220703125	-898.4195556640625	37.34073257446289	1220.337646484375	
2	0.01	-842.3336791992188	1131.159423828125	1218.307495117188	-846.4208374023438	1132.324340820312	1083.797729492188	-851.25341796875	1161.953979492188	1148.970092773438	-638.2022705078125	1365.011352539062	1141.648315429688	-894.97998046875	1311.17529296875	1148.948364257812	-867.825439453125	1603.849487304688	1134.579467773438	-678.8569946289062	1498.660766601562	1138.1259765625	-915.498046875	1419.089477539062	1224.279541015625	-875.7691650390625	1583.7490234375	1032.5126953125	-789.8558349609375	1570.231567382812	962.11181640625	-808.3826904296875	1438.079345703125	891.6900634765625	-785.7837524414062	1218.02392578125	873.6826171875	-853.182373046875	1205.593505859375	930.2045288085938	-676.8737182617188	964.7603149414062	925.883544921875	-755.7579345703125	935.486572265625	895.96923828125	-764.440185546875	1102.179321289062	872.4276123046875	-653.8679809570312	770.72265625	943.9469604492188	-724.4496459960938	861.6226806640625	899.142333984375	-658.7233276367188	876.6813354492188	917.8746337890625	-804.771240234375	1586.164672851562	1313.948974609375	-818.2880249023438	1514.004760742188	1379.66943359375	-820.4601440429688	1219.971313476562	1407.327880859375	-838.8863525390625	1218.23681640625	1312.757568359375	-672.4862060546875	979.3914184570312	1373.336059570312	-741.1896362304688	961.3970947265625	1416.580810546875	-792.3679809570312	1146.456665039062	1420.270751953125	-639.2095336914062	786.1980590820312	1359.828002929688	-638.8882446289062	873.84033203125	1376.753784179688	-700.1024169921875	863.1262817382812	1414.560668945312	-828.09423828125	1773.572021484375	1217.132080078125	-692.978515625	1844.774291992188	1058.57958984375	-672.839599609375	1854.88818359375	1186.944702148438	-856.3595581054688	1767.562744140625	1085.352783203125	-758.2110595703125	1040.678955078125	973.7176513671875	-710.50732421875	1034.193603515625	1330.488891601562	-631.1132202148438	1107.37939453125	1275.342529296875	-647.240234375	1106.227294921875	1009.548645019531	-744.5113525390625	539.6460571289062	995.6471557617188	-762.9247436523438	686.5757446289062	971.632080078125	-865.4572143554688	39.77447891235352	1003.117126464844	-851.9822998046875	296.3618774414062	971.8017578125	-631.6071166992188	41.12842559814453	1053.0595703125	-712.4330444335938	42.70726013183594	1089.593139648438	-739.4852294921875	39.66389846801758	974.9813232421875	-934.3294067382812	42.04923629760742	1066.126342773438	-740.2739868164062	542.2919921875	1293.852416992188	-701.9169921875	820.8173217773438	1321.903930664062	-848.4185791015625	29.70236587524414	1265.518188476562	-770.1986083984375	410.5848999023438	1303.055541992188	-610.9354858398438	46.38265991210938	1218.590209960938	-670.9912719726562	38.32269287109375	1176.72412109375	-711.14501953125	42.74822998046875	1292.224487304688	-898.4298706054688	37.33103561401367	1220.329467773438	
3	0.02	-842.4262084960938	1131.182495117188	1218.248779296875	-846.4615478515625	1132.34326171875	1083.750122070312	-851.302001953125	1161.96435546875	1148.938232421875	-638.22802734375	1364.998291015625	1141.631225585938	-895.0355224609375	1311.211303710938	1148.875244140625	-867.8209838867188	1603.905029296875	1134.495849609375	-678.8757934570312	1498.644897460938	1138.087036132812	-915.529052734375	1419.118408203125	1224.217407226562	-875.7343139648438	1583.7646484375	1032.440063476562	-789.8192749023438	1570.226684570312	962.0579223632812	-808.3719482421875	1438.072021484375	891.6384887695312	-785.881591796875	1218.016479492188	873.6092529296875	-853.2874145507812	1205.623168945312	930.1680297851562	-677.1394653320312	964.6782836914062	925.7376098632812	-756.1067504882812	935.4446411132812	895.8922119140625	-764.6438598632812	1102.172485351562	872.3605346679688	-654.3319091796875	770.5975341796875	943.74462890625	-724.8510131835938	861.5809936523438	898.9566040039062	-659.1505126953125	876.5699462890625	917.7155151367188	-804.7867431640625	1586.183837890625	1313.88330078125	-818.357421875	1514.049560546875	1379.60400390625	-820.6615600585938	1220.03369140625	1407.300537109375	-839.104736328125	1218.302978515625	1312.814697265625	-672.948486328125	979.33349609375	1373.26025390625	-741.6046142578125	961.3894653320312	1416.523681640625	-792.64013671875	1146.50048828125	1420.263793945312	-639.82568359375	786.0775756835938	1359.689086914062	-639.3709716796875	873.7283325195312	1376.640014648438	-700.487060546875	863.0958251953125	1414.443237304688	-827.9978637695312	1773.586059570312	1217.14111328125	-692.8765258789062	1844.789306640625	1058.585815429688	-672.7039184570312	1854.853881835938	1186.9345703125	-856.2908325195312	1767.650268554688	1085.346313476562	-758.2261352539062	1040.67236328125	973.7108154296875	-710.6307983398438	1034.197143554688	1330.477661132812	-631.1737060546875	1107.379272460938	1275.338989257812	-647.2562866210938	1106.203735351562	1009.544311523438	-744.563720703125	539.6451416015625	995.6414184570312	-762.9625854492188	686.5682373046875	971.62109375	-865.447265625	39.77361297607422	1003.116027832031	-852.01220703125	296.3543395996094	971.7965087890625	-631.6039428710938	41.12935638427734	1053.065063476562	-712.4287109375	42.70656585693359	1089.59619140625	-739.4817504882812	39.66573715209961	974.9830932617188	-934.3299560546875	42.04987716674805	1066.126220703125	-740.3434448242188	542.3093872070312	1293.852661132812	-702.0159912109375	820.8063354492188	1321.907348632812	-847.7410278320312	30.29466819763184	1265.947143554688	-770.2470703125	410.5917663574219	1303.045654296875	-610.9258422851562	46.38346481323242	1218.589599609375	-670.9912719726562	38.32269287109375	1176.72412109375	-711.1514282226562	42.74501037597656	1292.227294921875	-898.96728515625	36.75064086914062	1219.878173828125	
4	0.03	-842.5377807617188	1131.206420898438	1218.177124023438	-846.5060424804688	1132.361572265625	1083.6982421875	-851.3590698242188	1161.975830078125	1148.898559570312	-638.2583618164062	1364.981323242188	1141.612060546875	-895.1039428710938	1311.252075195312	1148.789184570312	-867.8153686523438	1603.964965820312	1134.4013671875	-678.8980102539062	1498.624389648438	1138.04638671875	-915.5662841796875	1419.149169921875	1224.144653320312	-875.69189453125	1583.780517578125	1032.359008789062	-789.7748413085938	1570.220825195312	961.9988403320312	-808.3589477539062	1438.064331054688	891.5814208984375	-785.9944458007812	1218.008544921875	873.5231323242188	-853.4058837890625	1205.656616210938	930.1229858398438	-677.4402465820312	964.5798950195312	925.5759887695312	-756.4996948242188	935.398681640625	895.7852783203125	-764.880126953125	1102.165283203125	872.2830200195312	-654.8499755859375	770.4572143554688	943.5084228515625	-725.3004150390625	861.538330078125	898.7525024414062	-659.6345825195312	876.4462280273438	917.5355834960938	-804.8087158203125	1586.20068359375	1313.80908203125	-818.4458618164062	1514.095458984375	1379.530883789062	-820.9093627929688	1220.101806640625	1407.260864257812	-839.3561401367188	1218.371215820312	1312.870849609375	-673.462158203125	979.2647094726562	1373.1728515625	-742.072021484375	961.3821411132812	1416.464477539062	-792.958740234375	1146.543212890625	1420.250366210938	-640.4998168945312	785.9512329101562	1359.544799804688	-639.9111328125	873.6021728515625	1376.505981445312	-700.930419921875	863.0599365234375	1414.324096679688	-827.8875122070312	1773.599609375	1217.158081054688	-692.7531127929688	1844.807739257812	1058.60302734375	-672.543701171875	1854.81494140625	1186.935302734375	-856.2056884765625	1767.749633789062	1085.34326171875	-758.2403564453125	1040.6630859375	973.7041625976562	-710.7652587890625	1034.202270507812	1330.464477539062	-631.24560546875	1107.379272460938	1275.334228515625	-647.27880859375	1106.176879882812	1009.539123535156	-744.6202392578125	539.6461791992188	995.63525390625	-763.0049438476562	686.5607299804688	971.6080322265625	-865.4389038085938	39.77251434326172	1003.11474609375	-852.0492553710938	296.3446044921875	971.7890625	-631.6021728515625	41.12966156005859	1053.0693359375	-712.4237670898438	42.70680236816406	1089.599731445312	-739.478271484375	39.66773986816406	974.9845581054688	-934.3335571289062	42.05123519897461	1066.122802734375	-740.4178466796875	542.32958984375	1293.852783203125	-702.1185913085938	820.7973022460938	1321.907958984375	-846.7138671875	31.19216537475586	1266.603759765625	-770.2996826171875	410.5988159179688	1303.034545898438	-610.9174194335938	46.38403701782227	1218.589965820312	-670.9912719726562	38.32268905639648	1176.72412109375	-711.1571655273438	42.74237060546875	1292.228515625	-899.7857055664062	35.86539459228516	1219.189819335938	
